<svg width="157" height="24" viewBox="0 0 157 24" fill="none" xmlns="http://www.w3.org/2000/svg">
<g clip-path="url(#clip0_3217_6488)">
<path d="M8.69458 0.26738H2.25893C1.53054 0.26738 0.968114 0.461003 0.580868 0.848248C0.193623 1.23549 0 1.79792 0 2.52631V21.4091C0 22.1375 0.193623 22.7 0.580868 23.0872C0.968114 23.4744 1.53054 23.6681 2.25893 23.6681H8.69458C10.6677 23.6681 12.4103 23.4099 13.9224 22.8844C15.4345 22.368 16.7253 21.6028 17.7764 20.607C18.8275 19.6112 19.6204 18.3849 20.1644 16.9374C20.7084 15.4898 20.9758 13.821 20.9758 11.9401C20.9758 8.17825 19.9063 5.29235 17.7764 3.27314C15.6373 1.27237 12.6131 0.26738 8.69458 0.26738ZM16.0338 15.5544C15.7019 16.587 15.1948 17.4353 14.5217 18.1083C13.8486 18.7814 13.0096 19.2885 11.9954 19.6389C10.9904 19.98 9.801 20.1552 8.4272 20.1552H4.24126V3.78025H8.4272C11.1287 3.78025 13.1479 4.45332 14.5033 5.80868C15.8494 7.15482 16.5317 9.20169 16.5317 11.9493C16.5317 13.3231 16.3657 14.5217 16.0338 15.5544Z" fill="black"/>
<path d="M35.2026 1.78871C34.9168 1.1433 34.5664 0.69151 34.1607 0.414906C33.755 0.138302 33.294 0 32.7869 0C32.2798 0 31.7819 0.138302 31.3762 0.414906C30.9706 0.69151 30.6202 1.15252 30.3344 1.78871L21.5752 21.2063C21.354 21.7134 21.2802 22.1744 21.3447 22.5801C21.4093 22.9858 21.6029 23.3177 21.9256 23.5574C22.2483 23.7972 22.6724 23.9262 23.2072 23.9262C23.7789 23.9262 24.2214 23.7787 24.5349 23.4929C24.8484 23.2071 25.1434 22.7368 25.4293 22.1007L27.0612 18.2466H38.4757L40.1354 22.1007C40.4027 22.7184 40.707 23.1794 41.0482 23.4745C41.3893 23.7695 41.8687 23.9262 42.4957 23.9262C43.0028 23.9262 43.4177 23.8064 43.722 23.5759C44.0355 23.3454 44.2199 23.0134 44.2844 22.5985C44.349 22.1744 44.266 21.7134 44.017 21.2063L35.2026 1.78871ZM32.7132 4.87745H32.7777L37.0097 14.8721H28.5088L32.7132 4.87745Z" fill="black"/>
<path d="M61.0468 11.5895C62.0242 11.2207 62.8263 10.6675 63.4533 9.92066C64.2739 8.94333 64.6796 7.75393 64.6796 6.33403C64.6796 5.07087 64.3753 3.99212 63.7668 3.07932C63.1582 2.17575 62.2823 1.47502 61.1298 0.986355C59.9773 0.497689 58.5851 0.257965 56.9439 0.257965H48.9777C48.2493 0.257965 47.6869 0.451588 47.2996 0.838833C46.9124 1.22608 46.7188 1.78851 46.7188 2.5169V21.3997C46.7188 22.1281 46.9124 22.6905 47.2996 23.0778C47.6869 23.465 48.2493 23.6587 48.9777 23.6587H57.3127C59.8113 23.6587 61.766 23.087 63.1675 21.9529C64.5689 20.8096 65.2789 19.2053 65.2789 17.1216C65.2789 15.5265 64.8271 14.2357 63.9143 13.2399C63.1951 12.447 62.227 11.903 61.0468 11.5895ZM50.8033 3.48501H56.2155C57.6723 3.48501 58.7695 3.77083 59.4886 4.33326C60.2078 4.89569 60.5674 5.73472 60.5674 6.84114C60.5674 7.94755 60.2078 8.78659 59.4886 9.34901C58.7695 9.91144 57.6815 10.1973 56.2155 10.1973H50.8033V3.48501ZM60.0972 19.5649C59.3872 20.155 58.2808 20.4408 56.7779 20.4408H50.8033V13.4059H56.7779C58.2808 13.4059 59.3872 13.6917 60.0972 14.2726C60.8071 14.8442 61.1575 15.7293 61.1575 16.928C61.1575 18.1266 60.8071 18.984 60.0972 19.5649Z" fill="black"/>
<path d="M81.976 7.17307C81.3121 7.17307 80.805 7.34825 80.4455 7.68939C80.0951 8.03054 79.9107 8.55608 79.9107 9.26603V16.5684C79.9107 17.8315 79.5603 18.8457 78.8504 19.6018C78.1404 20.3671 77.2368 20.7451 76.1304 20.7451C75.1162 20.7451 74.3694 20.4685 73.9084 19.9153C73.4474 19.3621 73.2077 18.5138 73.2077 17.3613V9.26603C73.2077 8.55608 73.0232 8.03054 72.6637 7.68939C72.2949 7.34825 71.7878 7.17307 71.1239 7.17307C70.4601 7.17307 69.9529 7.34825 69.5934 7.68939C69.243 8.03054 69.0586 8.55608 69.0586 9.26603V17.2968C69.0586 18.7812 69.2707 20.0167 69.704 21.0125C70.1373 22.0083 70.792 22.7551 71.6771 23.253C72.5622 23.7509 73.6779 23.9998 75.0332 23.9998C76.3886 23.9998 77.4305 23.6771 78.3709 23.0409C79.044 22.5799 79.588 21.9806 80.0121 21.243V21.8146C80.0121 22.4969 80.1873 23.0225 80.5469 23.3913C80.8972 23.7601 81.3951 23.9353 82.0405 23.9353C83.3867 23.9353 84.069 23.2253 84.069 21.8146V9.26603C84.069 8.55608 83.8846 8.03054 83.525 7.68939C83.1562 7.34825 82.6491 7.17307 81.9852 7.17307H81.976Z" fill="black"/>
<path d="M101.486 8.13215C100.426 7.44987 99.1718 7.0995 97.7334 7.0995C96.3873 7.0995 95.1979 7.43143 94.1837 8.09527C93.4553 8.5655 92.9113 9.14637 92.5241 9.83788V2.09297C92.5241 1.41068 92.3397 0.885132 91.9801 0.534768C91.6205 0.184403 91.1042 0 90.4403 0C89.7765 0 89.2694 0.175182 88.9098 0.534768C88.5594 0.885132 88.375 1.41068 88.375 2.09297V21.8056C88.375 22.4879 88.5502 23.0134 88.9098 23.3823C89.2601 23.7511 89.7765 23.9262 90.4403 23.9262C91.1042 23.9262 91.5836 23.7418 91.934 23.3823C92.2843 23.0134 92.4687 22.4879 92.4687 21.8056V21.1141C92.8468 21.8517 93.4 22.4695 94.1468 22.9673C95.1795 23.6496 96.3781 24 97.7519 24C99.1257 24 100.416 23.6589 101.486 22.9673C102.556 22.2851 103.395 21.2985 103.994 20.0261C104.593 18.7537 104.888 17.2509 104.888 15.5267C104.888 13.8025 104.593 12.2812 103.994 11.0273C103.395 9.77334 102.565 8.80523 101.504 8.12294L101.486 8.13215ZM100.177 18.4679C99.8356 19.2516 99.3562 19.8417 98.7292 20.2474C98.1022 20.6531 97.3923 20.8467 96.5717 20.8467C95.3362 20.8467 94.3404 20.3949 93.5844 19.5006C92.8283 18.6062 92.4595 17.2785 92.4595 15.5359C92.4595 14.365 92.6347 13.3876 92.9758 12.5947C93.317 11.811 93.7964 11.2209 94.4234 10.8337C95.0412 10.4464 95.7603 10.2528 96.5809 10.2528C97.8164 10.2528 98.8122 10.6861 99.5682 11.562C100.324 12.438 100.693 13.7564 100.693 15.5267C100.693 16.6977 100.518 17.675 100.177 18.4679Z" fill="black"/>
<path d="M121.401 8.13215C120.341 7.44987 119.087 7.0995 117.648 7.0995C116.302 7.0995 115.113 7.43143 114.099 8.09527C113.37 8.5655 112.826 9.14637 112.439 9.83788V2.09297C112.439 1.41068 112.255 0.885132 111.895 0.534768C111.536 0.184403 111.019 0 110.355 0C109.692 0 109.184 0.175182 108.825 0.534768C108.474 0.885132 108.29 1.41068 108.29 2.09297V21.8056C108.29 22.4879 108.465 23.0134 108.825 23.3823C109.175 23.7511 109.692 23.9262 110.355 23.9262C111.019 23.9262 111.499 23.7418 111.849 23.3823C112.199 23.0134 112.384 22.4879 112.384 21.8056V21.1141C112.762 21.8517 113.315 22.4695 114.062 22.9673C115.094 23.6496 116.293 24 117.667 24C119.041 24 120.332 23.6589 121.401 22.9673C122.471 22.2851 123.31 21.2985 123.909 20.0261C124.508 18.7537 124.803 17.2509 124.803 15.5267C124.803 13.8025 124.508 12.2812 123.909 11.0273C123.31 9.77334 122.48 8.80523 121.42 8.12294L121.401 8.13215ZM120.092 18.4679C119.751 19.2516 119.271 19.8417 118.644 20.2474C118.017 20.6531 117.307 20.8467 116.487 20.8467C115.251 20.8467 114.255 20.3949 113.499 19.5006C112.743 18.6062 112.375 17.2785 112.375 15.5359C112.375 14.365 112.55 13.3876 112.891 12.5947C113.232 11.811 113.711 11.2209 114.338 10.8337C114.956 10.4464 115.675 10.2528 116.496 10.2528C117.731 10.2528 118.727 10.6861 119.483 11.562C120.239 12.438 120.608 13.7564 120.608 15.5267C120.608 16.6977 120.433 17.675 120.092 18.4679Z" fill="black"/>
<path d="M135.812 20.5148C135.655 20.5332 135.499 20.5517 135.351 20.5609C135.194 20.5701 135.029 20.5793 134.853 20.5793C134.06 20.5793 133.443 20.3396 133.009 19.8509C132.576 19.3623 132.364 18.6154 132.364 17.592V2.09297C132.364 1.41068 132.18 0.885132 131.82 0.534768C131.46 0.184403 130.944 0 130.28 0C129.616 0 129.109 0.175182 128.75 0.534768C128.399 0.885132 128.215 1.41068 128.215 2.09297V17.7949C128.215 19.8325 128.676 21.3723 129.607 22.4234C130.538 23.4745 131.921 24 133.756 24C133.996 24 134.245 23.9908 134.485 23.9631C134.724 23.9447 134.964 23.917 135.185 23.8986C135.692 23.834 136.061 23.6404 136.282 23.3361C136.504 23.0227 136.614 22.5985 136.614 22.0453C136.614 21.3999 136.559 20.9758 136.448 20.7637C136.338 20.5517 136.126 20.4687 135.821 20.5148H135.812Z" fill="black"/>
<path d="M151.911 19.5374C151.56 19.5005 151.145 19.6204 150.684 19.8878C150.039 20.2382 149.366 20.4871 148.647 20.6346C147.928 20.7821 147.282 20.8467 146.701 20.8467C145.042 20.8467 143.788 20.3949 142.93 19.5005C142.257 18.7906 141.861 17.7856 141.722 16.4948H151.745C152.252 16.4948 152.648 16.3934 152.925 16.1813C153.201 15.9692 153.34 15.665 153.34 15.2685C153.34 14.0053 153.165 12.8713 152.823 11.8663C152.482 10.8613 151.984 10.0038 151.33 9.29386C150.675 8.58391 149.891 8.03992 148.969 7.67112C148.047 7.29309 147.015 7.10869 145.862 7.10869C144.295 7.10869 142.893 7.46827 141.667 8.18744C140.441 8.90661 139.473 9.89317 138.781 11.1563C138.08 12.4195 137.739 13.8855 137.739 15.5728C137.739 17.2601 138.099 18.7906 138.818 20.0538C139.537 21.3169 140.561 22.285 141.888 22.9765C143.216 23.6588 144.802 24.0092 146.637 24.0092C147.503 24.0092 148.435 23.8893 149.44 23.6588C150.445 23.4283 151.339 23.0687 152.113 22.5801C152.51 22.3403 152.796 22.0453 152.962 21.7134C153.128 21.3815 153.192 21.0587 153.146 20.736C153.1 20.4133 152.971 20.146 152.768 19.9247C152.556 19.7034 152.279 19.5743 151.92 19.5466L151.911 19.5374ZM143.659 10.5755C144.313 10.1421 145.106 9.93005 146.028 9.93005C146.867 9.93005 147.568 10.1145 148.14 10.474C148.702 10.8428 149.135 11.3684 149.43 12.0507C149.679 12.6223 149.818 13.3138 149.864 14.1068H141.722C141.805 13.4798 141.944 12.8989 142.165 12.401C142.506 11.6173 143.004 11.0088 143.659 10.5755Z" fill="black"/>
</g>
<defs>
<clipPath id="clip0_3217_6488">
<rect width="156.106" height="24" fill="white"/>
</clipPath>
</defs>
</svg>
